{
  "accessors": [
    {
      "bufferView": 1,
      "componentType": 5126,
      "count": 38112,
      "max": [
        1099.5050048828125,
        1966.156982421875,
        959.1099853515625
      ],
      "min": [
        -1212.5360107421875,
        161.29130554199219,
        -1155.552978515625
      ],
      "type": "VEC3"
    },
    {
      "bufferView": 1,
      "byteOffset": 457344,
      "componentType": 5126,
      "count": 38112,
      "max": [
        0.99980086088180542,
        1,
        0.99999809265136719
      ],
      "min": [
        -0.99980086088180542,
        -1,
        -0.99999809265136719
      ],
      "type": "VEC3"
    },
    {
      "bufferView": 2,
      "componentType": 5126,
      "count": 38112,
      "max": [
        0.9568626880645752,
        0.61176472902297974,
        0.99215692281723022,
        1
      ],
      "min": [
        0.0078431377187371254,
        0,
        0.078431382775306702,
        1
      ],
      "type": "VEC4"
    },
    {
      "bufferView": 2,
      "byteOffset": 609792,
      "componentType": 5126,
      "count": 38112,
      "max": [
        0.99994015693664551,
        1,
        1,
        -1
      ],
      "min": [
        -0.99997556209564209,
        -0.99999111890792847,
        -0.99999988079071045,
        -1
      ],
      "type": "VEC4"
    },
    {
      "bufferView": 0,
      "componentType": 5125,
      "count": 177408,
      "max": [
        38111
      ],
      "min": [
        0
      ],
      "type": "SCALAR"
    },
    {
      "bufferView": 1,
      "byteOffset": 914688,
      "componentType": 5126,
      "count": 6092,
      "max": [
        535.31549072265625,
        1908.5030517578125,
        869.85498046875
      ],
      "min": [
        -1138.574951171875,
        438.24319458007812,
        -1060.81201171875
      ],
      "type": "VEC3"
    },
    {
      "bufferView": 1,
      "byteOffset": 987792,
      "componentType": 5126,
      "count": 6092,
      "max": [
        0.99972802400588989,
        0.99981212615966797,
        0.99998009204864502
      ],
      "min": [
        -0.99972802400588989,
        -0.99981212615966797,
        -0.99998009204864502
      ],
      "type": "VEC3"
    },
    {
      "bufferView": 2,
      "byteOffset": 1219584,
      "componentType": 5126,
      "count": 6092,
      "max": [
        0.72549021244049072,
        0.57647061347961426,
        0.94509798288345337,
        1
      ],
      "min": [
        0.015686279162764549,
        0,
        0.031372550874948502,
        0
      ],
      "type": "VEC4"
    },
    {
      "bufferView": 2,
      "byteOffset": 1317056,
      "componentType": 5126,
      "count": 6092,
      "max": [
        0.99963665008544922,
        1,
        0.99991124868392944,
        1
      ],
      "min": [
        -0.99969452619552612,
        -1,
        -0.99999964237213135,
        -1
      ],
      "type": "VEC4"
    },
    {
      "bufferView": 0,
      "byteOffset": 709632,
      "componentType": 5125,
      "count": 15924,
      "max": [
        6091
      ],
      "min": [
        0
      ],
      "type": "SCALAR"
    },
    {
      "bufferView": 1,
      "byteOffset": 1060896,
      "componentType": 5126,
      "count": 10038,
      "max": [
        1294.1600341796875,
        2016.156982421875,
        1008.9019775390625
      ],
      "min": [
        -1382.93798828125,
        32.657649993896484,
        -1209.2750244140625
      ],
      "type": "VEC3"
    },
    {
      "bufferView": 1,
      "byteOffset": 1181352,
      "componentType": 5126,
      "count": 10038,
      "max": [
        0.99738860130310059,
        0.9998432993888855,
        0.99792981147766113
      ],
      "min": [
        -0.99317032098770142,
        -0.99438941478729248,
        -0.99974870681762695
      ],
      "type": "VEC3"
    },
    {
      "bufferView": 2,
      "byteOffset": 1414528,
      "componentType": 5126,
      "count": 10038,
      "max": [
        0.65098041296005249,
        0.65098041296005249,
        0.9568626880645752,
        1
      ],
      "min": [
        0.0039215688593685627,
        0.0039215688593685627,
        0.0078431377187371254,
        0
      ],
      "type": "VEC4"
    },
    {
      "bufferView": 2,
      "byteOffset": 1575136,
      "componentType": 5126,
      "count": 10038,
      "max": [
        0.99997729063034058,
        1,
        0.99999618530273438,
        -1
      ],
      "min": [
        -1,
        -1,
        -0.99999022483825684,
        -1
      ],
      "type": "VEC4"
    },
    {
      "bufferView": 0,
      "byteOffset": 773328,
      "componentType": 5125,
      "count": 26652,
      "max": [
        10037
      ],
      "min": [
        0
      ],
      "type": "SCALAR"
    },
    {
      "bufferView": 1,
      "byteOffset": 1301808,
      "componentType": 5126,
      "count": 104,
      "max": [
        79.757560729980469,
        863.7562255859375,
        442.63861083984375
      ],
      "min": [
        -180.69209289550781,
        677.71331787109375,
        -578.75531005859375
      ],
      "type": "VEC3"
    },
    {
      "bufferView": 1,
      "byteOffset": 1303056,
      "componentType": 5126,
      "count": 104,
      "max": [
        -0.41629555821418762,
        0.63875186443328857,
        0.82911747694015503
      ],
      "min": [
        -0.56961596012115479,
        0.32082760334014893,
        -0.85074412822723389
      ],
      "type": "VEC3"
    },
    {
      "bufferView": 2,
      "byteOffset": 1735744,
      "componentType": 5126,
      "count": 104,
      "max": [
        0.0078431377187371254,
        0.0078431377187371254,
        0.078431382775306702,
        0.93725490570068359
      ],
      "min": [
        0.0078431377187371254,
        0.0078431377187371254,
        0.078431382775306702,
        0.24313730001449585
      ],
      "type": "VEC4"
    },
    {
      "bufferView": 2,
      "byteOffset": 1737408,
      "componentType": 5126,
      "count": 104,
      "max": [
        0.90709632635116577,
        0.87290579080581665,
        0.78365355730056763,
        -1
      ],
      "min": [
        0.48265936970710754,
        -0.24588215351104736,
        -0.81367188692092896,
        -1
      ],
      "type": "VEC4"
    },
    {
      "bufferView": 0,
      "byteOffset": 879936,
      "componentType": 5125,
      "count": 276,
      "max": [
        103
      ],
      "min": [
        0
      ],
      "type": "SCALAR"
    },
    {
      "bufferView": 1,
      "byteOffset": 1304304,
      "componentType": 5126,
      "count": 4704,
      "max": [
        881.00640869140625,
        1977.2330322265625,
        851.9805908203125
      ],
      "min": [
        -1401.8599853515625,
        61.946151733398438,
        -1049.4029541015625
      ],
      "type": "VEC3"
    },
    {
      "bufferView": 1,
      "byteOffset": 1360752,
      "componentType": 5126,
      "count": 4704,
      "max": [
        0.97706949710845947,
        0.99888873100280762,
        0.98827660083770752
      ],
      "min": [
        -0.97706949710845947,
        -0.99888873100280762,
        -0.98827660083770752
      ],
      "type": "VEC3"
    },
    {
      "bufferView": 2,
      "byteOffset": 1739072,
      "componentType": 5126,
      "count": 4704,
      "max": [
        0.49411758780479431,
        0.4901961088180542,
        0.68235301971435547,
        1
      ],
      "min": [
        0.14901959896087646,
        0.16078430414199829,
        0.21176469326019287,
        0
      ],
      "type": "VEC4"
    },
    {
      "bufferView": 2,
      "byteOffset": 1814336,
      "componentType": 5126,
      "count": 4704,
      "max": [
        0.99990969896316528,
        0.92714148759841919,
        0.99993413686752319,
        1
      ],
      "min": [
        -1,
        -0.90126961469650269,
        -0.99995154142379761,
        -1
      ],
      "type": "VEC4"
    },
    {
      "bufferView": 0,
      "byteOffset": 881040,
      "componentType": 5125,
      "count": 12528,
      "max": [
        4703
      ],
      "min": [
        0
      ],
      "type": "SCALAR"
    },
    {
      "bufferView": 1,
      "byteOffset": 1417200,
      "componentType": 5126,
      "count": 1162,
      "max": [
        755.62847900390625,
        1647.4110107421875,
        341.09829711914062
      ],
      "min": [
        -359.28671264648438,
        616.797119140625,
        -512.980224609375
      ],
      "type": "VEC3"
    },
    {
      "bufferView": 1,
      "byteOffset": 1431144,
      "componentType": 5126,
      "count": 1162,
      "max": [
        -0.3729282021522522,
        0.91215932369232178,
        0.52717733383178711
      ],
      "min": [
        -0.99999868869781494,
        -0.78238993883132935,
        -0.5685502290725708
      ],
      "type": "VEC3"
    },
    {
      "bufferView": 2,
      "byteOffset": 1889600,
      "componentType": 5126,
      "count": 1162,
      "max": [
        0.9803922176361084,
        0.9803922176361084,
        0.9568626880645752,
        1
      ],
      "min": [
        0,
        0,
        0,
        1
      ],
      "type": "VEC4"
    },
    {
      "bufferView": 2,
      "byteOffset": 1908192,
      "componentType": 5126,
      "count": 1162,
      "max": [
        0.79635930061340332,
        1,
        0.99999654293060303,
        -1
      ],
      "min": [
        -0.92327892780303955,
        -1,
        -0.99999922513961792,
        -1
      ],
      "type": "VEC4"
    },
    {
      "bufferView": 0,
      "byteOffset": 931152,
      "componentType": 5125,
      "count": 2778,
      "max": [
        1161
      ],
      "min": [
        0
      ],
      "type": "SCALAR"
    }
  ],
  "asset": {
    "generator": "Sketchfab (OSG glTF plugin)",
    "version": "2.0"
  },
  "bufferViews": [
    {
      "buffer": 0,
      "byteLength": 942264,
      "byteOffset": 0,
      "name": "ScalarBufferView",
      "target": 34963
    },
    {
      "buffer": 0,
      "byteLength": 1445088,
      "byteOffset": 942264,
      "byteStride": 12,
      "name": "Vec4BufferView",
      "target": 34962
    },
    {
      "buffer": 0,
      "byteLength": 1926784,
      "byteOffset": 2387352,
      "byteStride": 16,
      "name": "MatrixBufferView",
      "target": 34962
    }
  ],
  "buffers": [
    {
      "byteLength": 4314136,
      "uri": "scene.bin"
    }
  ],
  "extensionsRequired": [
    "KHR_materials_pbrSpecularGlossiness"
  ],
  "extensionsUsed": [
    "KHR_materials_pbrSpecularGlossiness"
  ],
  "materials": [
    {
      "doubleSided": true,
      "emissiveFactor": [
        0,
        0,
        0
      ],
      "extensions": {
        "KHR_materials_pbrSpecularGlossiness": {
          "diffuseFactor": [
            1,
            1,
            1,
            1
          ],
          "glossinessFactor": 0,
          "specularFactor": [
            0,
            0,
            0
          ]
        }
      },
      "name": "RootNode",
      "occlusionFactor": 1
    },
    {
      "alphaCutoff": 0.20000000000000001,
      "alphaMode": "MASK",
      "doubleSided": true,
      "emissiveFactor": [
        1,
        1,
        1
      ],
      "extensions": {
        "KHR_materials_pbrSpecularGlossiness": {
          "diffuseFactor": [
            1,
            1,
            1,
            1
          ],
          "glossinessFactor": 0,
          "specularFactor": [
            0,
            0,
            0
          ]
        }
      },
      "name": "Duct_TapeLambert",
      "occlusionFactor": 1
    },
    {
      "alphaCutoff": 0.20000000000000001,
      "alphaMode": "MASK",
      "doubleSided": true,
      "emissiveFactor": [
        1,
        1,
        1
      ],
      "extensions": {
        "KHR_materials_pbrSpecularGlossiness": {
          "diffuseFactor": [
            1,
            1,
            1,
            1
          ],
          "glossinessFactor": 0,
          "specularFactor": [
            0,
            0,
            0
          ]
        }
      },
      "name": "MarkerLambert",
      "occlusionFactor": 1
    },
    {
      "alphaCutoff": 0.20000000000000001,
      "alphaMode": "MASK",
      "doubleSided": true,
      "emissiveFactor": [
        1,
        1,
        1
      ],
      "extensions": {
        "KHR_materials_pbrSpecularGlossiness": {
          "diffuseFactor": [
            1,
            1,
            1,
            1
          ],
          "glossinessFactor": 0,
          "specularFactor": [
            0,
            0,
            0
          ]
        }
      },
      "name": "PaperLambert",
      "occlusionFactor": 1
    },
    {
      "alphaCutoff": 0.20000000000000001,
      "alphaMode": "MASK",
      "doubleSided": true,
      "emissiveFactor": [
        1,
        1,
        1
      ],
      "extensions": {
        "KHR_materials_pbrSpecularGlossiness": {
          "diffuseFactor": [
            1,
            1,
            1,
            1
          ],
          "glossinessFactor": 0,
          "specularFactor": [
            0.085000000000000006,
            0.085000000000000006,
            0.085000000000000006
          ]
        }
      },
      "name": "LightLambert",
      "occlusionFactor": 1
    }
  ],
  "meshes": [
    {
      "name": "All_Toon",
      "primitives": [
        {
          "attributes": {
            "COLOR_0": 2,
            "NORMAL": 1,
            "POSITION": 0,
            "TANGENT": 3
          },
          "indices": 4,
          "material": 0,
          "mode": 4
        }
      ]
    },
    {
      "name": "All_Duct_Tape",
      "primitives": [
        {
          "attributes": {
            "COLOR_0": 7,
            "NORMAL": 6,
            "POSITION": 5,
            "TANGENT": 8
          },
          "indices": 9,
          "material": 1,
          "mode": 4
        }
      ]
    },
    {
      "name": "All_Marker",
      "primitives": [
        {
          "attributes": {
            "COLOR_0": 12,
            "NORMAL": 11,
            "POSITION": 10,
            "TANGENT": 13
          },
          "indices": 14,
          "material": 2,
          "mode": 4
        }
      ]
    },
    {
      "name": "All_Pinched_Marker",
      "primitives": [
        {
          "attributes": {
            "COLOR_0": 17,
            "NORMAL": 16,
            "POSITION": 15,
            "TANGENT": 18
          },
          "indices": 19,
          "material": 0,
          "mode": 4
        }
      ]
    },
    {
      "name": "All_Paper",
      "primitives": [
        {
          "attributes": {
            "COLOR_0": 22,
            "NORMAL": 21,
            "POSITION": 20,
            "TANGENT": 23
          },
          "indices": 24,
          "material": 3,
          "mode": 4
        }
      ]
    },
    {
      "name": "All_Light",
      "primitives": [
        {
          "attributes": {
            "COLOR_0": 27,
            "NORMAL": 26,
            "POSITION": 25,
            "TANGENT": 28
          },
          "indices": 29,
          "material": 4,
          "mode": 4
        }
      ]
    }
  ],
  "nodes": [
    {
      "children": [
        1
      ],
      "name": "RootNode (gltf orientation matrix)",
      "rotation": [
        -0.70710678118654746,
        -0,
        -0,
        0.70710678118654757
      ]
    },
    {
      "children": [
        2
      ],
      "name": "RootNode (model correction matrix)"
    },
    {
      "children": [
        3
      ],
      "matrix": [
        1,
        0,
        0,
        0,
        0,
        0,
        1,
        0,
        0,
        -1,
        0,
        0,
        0,
        0,
        0,
        1
      ],
      "name": "2fa72d1e0e6141cf827cebfb4c3c7ee4.fbx"
    },
    {
      "children": [
        4,
        6,
        8,
        10,
        12,
        14
      ],
      "name": "RootNode"
    },
    {
      "children": [
        5
      ],
      "name": "All_Toon"
    },
    {
      "mesh": 0,
      "name": "All_Toon"
    },
    {
      "children": [
        7
      ],
      "name": "All_Duct_Tape"
    },
    {
      "mesh": 1,
      "name": "All_Duct_Tape"
    },
    {
      "children": [
        9
      ],
      "name": "All_Marker"
    },
    {
      "mesh": 2,
      "name": "All_Marker"
    },
    {
      "children": [
        11
      ],
      "name": "All_Pinched_Marker"
    },
    {
      "mesh": 3,
      "name": "All_Pinched_Marker"
    },
    {
      "children": [
        13
      ],
      "name": "All_Paper"
    },
    {
      "mesh": 4,
      "name": "All_Paper"
    },
    {
      "children": [
        15
      ],
      "name": "All_Light"
    },
    {
      "mesh": 5,
      "name": "All_Light"
    }
  ],
  "scene": 0,
  "scenes": [
    {
      "name": "OSG_Scene",
      "nodes": [
        0
      ]
    }
  ]
}

